:SAMPLES-PER-SECOND 30
:FULLY-SPECIFIED
:DEGREES
50
root  60.0819 39.1859 2.11112 51.4254 -84.8069 -54.4311
RightUpLeg  -11.1451 -12.7658 3.15247
RightLeg  20.536 -3.04187 1.18107
RightFoot  -7.11515 0.000439989 -1.30777
RightToes  1.74622e-010 0 -3.6325e-017
Spine  7.31936 -0.759845 15.0714
Spine1  10.2738 1.39945 -2.76088
HEad  -0.568403 -3.17528 -2.32016
LeftShoulder1  9.7466 -13.224 -50.8569
LeftArm  -3.35544 15.7279 -26.4139
LeftForeArm  26.7166 -34.5226 -6.16153
LeftHand  -0.244104 0.0205437 5.32207
RightShoulder  7.09501 10.5683 43.9908
RightArm  -3.50124 -5.86359 28.8557
RightForeArm  5.23104 8.173 8.04125
RightHand  -1.36067 3.39965 -18.0857
LeftUpLeg  -13.8304 3.37578 6.73089
LeftLeg  62.598 3.10586 7.09474
LeftFoot  4.30997 0.311693 -2.49957
LeftToes  -1.18267e-011 5.39559e-011 -6.19194e-012
51
root  58.7638 39.4254 1.93445 46.8025 -85.5718 -49.8098
RightUpLeg  -7.69394 -11.126 1.46703
RightLeg  18.6264 -4.2704 2.32538
RightFoot  -8.52847 -0.0454026 -0.511446
RightToes  1.74622e-010 0 -3.6325e-017
Spine  7.23887 -0.448289 14.2778
Spine1  10.0756 1.67385 -2.96634
HEad  -0.796772 -2.82295 -2.17572
LeftShoulder1  9.73452 -13.2878 -50.6051
LeftArm  -2.04947 16.996 -26.3727
LeftForeArm  24.1306 -30.0048 -5.16966
LeftHand  -0.244104 0.0205437 5.32207
RightShoulder  6.88786 10.3974 43.1906
RightArm  -0.818103 -3.25748 29.2992
RightForeArm  3.10965 10.9785 8.06131
RightHand  -1.28391 3.07276 -17.7262
LeftUpLeg  -17.8765 3.54388 5.16406
LeftLeg  60.8749 3.07005 6.55105
LeftFoot  2.25447 0.441169 -3.80132
LeftToes  -1.18267e-011 5.39559e-011 -6.19194e-012
52
root  57.4476 39.5958 1.77229 44.9987 -86.4492 -47.9239
RightUpLeg  -4.52251 -9.88363 0.181692
RightLeg  16.7532 -4.81538 3.35661
RightFoot  -9.75638 -0.066599 0.0312475
RightToes  1.74622e-010 0 -3.6325e-017
Spine  7.34727 -0.0545019 13.6955
Spine1  9.4274 2.08601 -3.52143
HEad  -0.743943 -2.65753 -2.31032
LeftShoulder1  9.69835 -13.3659 -50.1882
LeftArm  0.152548 17.7681 -26.3951
LeftForeArm  20.8293 -24.1998 -4.26297
LeftHand  -0.244104 0.0205437 5.32207
RightShoulder  6.74995 10.3181 42.531
RightArm  2.8979 -1.13498 29.6725
RightForeArm  -1.32361 14.6018 7.42529
RightHand  -1.20977 2.64386 -17.5856
LeftUpLeg  -21.1317 3.99015 3.58859
LeftLeg  56.1574 2.79586 5.00329
LeftFoot  1.5509 0.506787 -4.56507
LeftToes  -1.18267e-011 5.39559e-011 -6.19194e-012
53
root  56.1418 39.7232 1.61829 54.5886 -87.6875 -57.4596
RightUpLeg  -1.45645 -9.03854 -0.691847
RightLeg  14.7801 -4.36839 3.95759
RightFoot  -10.9284 -0.0750978 0.247668
RightToes  1.74622e-010 0 -3.6325e-017
Spine  7.58 0.461078 13.1027
Spine1  8.87652 2.6718 -4.4143
HEad  -0.776658 -2.30549 -2.56938
LeftShoulder1  9.63231 -13.3517 -49.8904
LeftArm  -0.0853421 18.1445 -26.1539
LeftForeArm  20.4872 -18.1546 -4.67174
LeftHand  -0.244104 0.0205437 5.32207
RightShoulder  6.77842 10.433 42.3459
RightArm  6.96799 1.12285 29.5222
RightForeArm  -6.24258 18.2854 6.40253
RightHand  -1.17176 2.40391 -17.5506
LeftUpLeg  -23.1746 5.5422 2.07463
LeftLeg  48.7311 2.60882 3.60421
LeftFoot  0.31441 0.523444 -5.16035
LeftToes  -1.18267e-011 5.39559e-011 -6.19194e-012
54
root  54.824 39.7396 1.48881 83.3215 -88.4885 -86.1106
RightUpLeg  1.21985 -8.65627 -1.15365
RightLeg  13.5169 -3.47998 4.21439
RightFoot  -12.3069 -0.0855898 -0.162263
RightToes  1.74622e-010 0 -3.6325e-017
Spine  7.45754 0.768981 12.671
Spine1  8.93093 3.01186 -5.14189
HEad  -1.13185 -1.52262 -2.89828
LeftShoulder1  9.57513 -13.2784 -49.8114
LeftArm  -4.24938 18.6008 -25.583
LeftForeArm  24.0743 -12.7914 -6.00413
LeftHand  -0.244104 0.0205437 5.32207
RightShoulder  6.863 10.6327 42.2635
RightArm  9.70408 3.88245 29.4012
RightForeArm  -8.92253 21.3254 5.61473
RightHand  -1.17131 2.38658 -17.5816
LeftUpLeg  -23.9976 7.62894 0.834562
LeftLeg  38.771 2.69862 2.67326
LeftFoot  -0.682994 0.573724 -6.08332
LeftToes  -1.18267e-011 5.39559e-011 -6.19194e-012
55
root  53.4639 39.6768 1.39393 119.952 -88.2924 -122.605
RightUpLeg  3.72152 -8.62508 -1.39175
RightLeg  12.7092 -2.52969 4.43209
RightFoot  -13.5663 -0.113684 -1.12838
RightToes  1.74622e-010 0 -3.6325e-017
Spine  6.97428 0.835936 12.5131
Spine1  9.35861 3.09238 -5.79093
HEad  -1.63669 -0.674196 -3.33668
LeftShoulder1  9.58944 -13.2599 -49.9399
LeftArm  -6.57278 19.5907 -25.0439
LeftForeArm  25.6659 -9.15921 -6.25618
LeftHand  -0.244104 0.0205437 5.32207
RightShoulder  6.85926 10.7211 41.9573
RightArm  10.2171 6.67006 29.7556
RightForeArm  -8.50478 23.6895 5.47167
RightHand  -1.15099 2.25513 -17.5695
LeftUpLeg  -23.7545 9.91378 -0.315557
LeftLeg  26.688 2.13068 1.71605
LeftFoot  0.573983 0.609276 -5.90647
LeftToes  -1.18267e-011 5.39559e-011 -6.19194e-012
